<svg id="Component_4_1" data-name="Component 4 – 1" xmlns="http://www.w3.org/2000/svg" width="150" height="150" viewBox="0 0 150 150">
    <g id="_24px" data-name="24px" transform="translate(34.615 34.879)" opacity="0.4">
        <g id="Group_204" data-name="Group 204" transform="translate(0.385 0.121)">
            <rect id="Rectangle_88" data-name="Rectangle 88" width="80" height="80" fill="none"/>
        </g>
        <g id="Group_207" data-name="Group 207" transform="translate(12.768 3.386)">
            <g id="Group_206" data-name="Group 206">
                <g id="Group_205" data-name="Group 205">
                    <path id="Path_128" data-name="Path 128" d="M31.52,54.516a6.692,6.692,0,1,0-6.88-6.69A6.807,6.807,0,0,0,31.52,54.516Zm20.64-30.1H48.72v-6.69A16.973,16.973,0,0,0,31.52,1a16.973,16.973,0,0,0-17.2,16.724v6.69H10.88A6.807,6.807,0,0,0,4,31.1V64.551a6.807,6.807,0,0,0,6.88,6.69H52.16a6.807,6.807,0,0,0,6.88-6.69V31.1A6.807,6.807,0,0,0,52.16,24.413Zm-31.3-6.69a10.668,10.668,0,0,1,21.328,0v6.69H20.856Zm31.3,46.827H10.88V31.1H52.16Z" transform="translate(-4 -1)" fill="#7e7e7e"/>
                </g>
            </g>
        </g>
    </g>
    <g id="Path_133" data-name="Path 133" fill="none" opacity="0.4">
        <path d="M75,0A75,75,0,1,1,0,75,75,75,0,0,1,75,0Z" stroke="none"/>
        <path d="M 75 6 C 36.95327758789062 6 6 36.95327758789062 6 75 C 6 113.0467224121094 36.95327758789062 144 75 144 C 113.0467224121094 144 144 113.0467224121094 144 75 C 144 36.95327758789062 113.0467224121094 6 75 6 M 75 0 C 116.4213485717773 0 150 33.57865142822266 150 75 C 150 116.4213485717773 116.4213485717773 150 75 150 C 33.57865142822266 150 0 116.4213485717773 0 75 C 0 33.57865142822266 33.57865142822266 0 75 0 Z" stroke="none" fill="#7e7e7e"/>
    </g>
</svg>
