<svg xmlns="http://www.w3.org/2000/svg" width="150" height="150" viewBox="0 0 150 150">
    <g id="_24px" data-name="24px" transform="translate(34.615 34.879)">
        <g id="Group_204" data-name="Group 204" transform="translate(0.385 0.121)">
            <rect id="Rectangle_88" data-name="Rectangle 88" width="80" height="80" fill="none"/>
        </g>
        <g id="Group_207" data-name="Group 207" transform="translate(12.768 3.386)">
            <g id="Group_206" data-name="Group 206">
                <g id="Group_205" data-name="Group 205">
                    <path id="Path_128" data-name="Path 128" d="M31.52,54.516a6.692,6.692,0,1,0-6.88-6.69A6.807,6.807,0,0,0,31.52,54.516Zm20.64-30.1H48.72v-6.69A16.973,16.973,0,0,0,31.52,1a16.973,16.973,0,0,0-17.2,16.724v6.69H10.88A6.807,6.807,0,0,0,4,31.1V64.551a6.807,6.807,0,0,0,6.88,6.69H52.16a6.807,6.807,0,0,0,6.88-6.69V31.1A6.807,6.807,0,0,0,52.16,24.413Zm-31.3-6.69a10.668,10.668,0,0,1,21.328,0v6.69H20.856Zm31.3,46.827H10.88V31.1H52.16Z" transform="translate(-4 -1)" fill="#dededf"/>
                </g>
            </g>
        </g>
    </g>
    <g id="Ellipse_8" data-name="Ellipse 8" fill="none" stroke="#dededf" stroke-width="6">
        <circle cx="75" cy="75" r="75" stroke="none"/>
        <circle cx="75" cy="75" r="72" fill="none"/>
    </g>
</svg>
