<svg width="244" height="54" viewBox="0 0 244 54" fill="none" xmlns="http://www.w3.org/2000/svg">
<path d="M214.156 22.8997V28.8296H182.905V24.7291C182.905 24.0983 182.969 23.4674 183.033 22.8366H214.156V22.8997Z" fill="#4CAF50"/>
<path d="M190.509 14.1936C195.366 14.1936 198.178 17.0955 198.178 22.2053V39.3642H205.528V21.0698C205.528 12.8689 200.735 7.82213 193.002 7.82213H192.682C192.618 7.82213 187.761 7.69597 183.479 10.4717L182.84 10.8502V8.26372H175.491V39.3642H182.84V22.2053C182.904 17.3478 185.908 14.1936 190.509 14.1936Z" fill="#303336"/>
<path d="M183.797 22.8993H139.765V28.8292H183.797V22.8993Z" fill="#4CAF50"/>
<path d="M43.1382 20.502L43.266 19.9973C44.1607 16.0861 47.1005 13.6889 51.1267 13.5627C55.728 13.4365 58.6678 15.8968 59.1791 19.9973L59.243 20.4389L59.4347 23.5931L42.6909 23.3407L43.1382 20.502ZM66.9119 23.1515C66.9119 23.0253 66.9119 22.9622 66.9119 22.8361C66.9119 21.8898 66.848 21.0066 66.6563 20.1865C65.442 12.6164 59.6264 7.75897 51.3184 7.75897C43.0743 7.75897 37.1948 12.6164 35.7888 20.1865C35.5971 21.0066 35.5332 21.8898 35.4693 22.8361C35.4693 23.1515 35.4693 23.4669 35.4693 23.8454C35.4693 24.6024 35.5332 25.4225 35.5971 26.1165C35.7249 27.0627 35.8527 27.9459 36.1083 28.766C37.3865 33.4973 40.6458 37.03 45.4389 38.7964C51.0628 40.9412 59.8181 39.995 63.9722 36.8407V30.3431C60.0099 33.245 56.1115 34.3805 51.3184 33.9389C48.0591 33.6865 44.7359 31.8571 43.4577 28.8291C43.1382 28.0721 42.9465 27.1889 42.9465 26.3057V26.1795V25.9272H66.6563C66.848 25.1071 66.9119 24.1608 66.9119 23.1515Z" fill="#303336"/>
<path d="M97.0775 26.3059V26.7475C97.0775 27.4414 97.0136 28.1353 96.8858 28.8292H36.1734C35.9178 28.0092 35.79 27.126 35.6621 26.1797C35.5982 25.4227 35.5343 24.6657 35.5343 23.9087C35.5343 23.5933 35.5343 23.2148 35.5343 22.8993H96.5024C96.8858 23.9087 97.0775 25.1073 97.0775 26.3059Z" fill="#4CAF50"/>
<path d="M166.734 39.3646V8.26413H159.321V11.8599L158.618 11.2291C157.659 10.3459 154.591 7.88562 149.479 7.88562C148.584 7.88562 147.562 7.9487 146.539 8.13796C139.062 9.46272 133.821 15.8973 133.821 23.8459C133.821 31.7945 139.062 38.2291 146.539 39.5538C153.377 40.7524 157.467 37.4721 158.554 36.4627L159.257 35.8319V39.4277H166.734V39.3646ZM150.182 33.6239C145.133 33.6239 141.107 29.2081 141.107 23.7828C141.107 18.3576 145.197 13.9417 150.182 13.9417C155.103 13.9417 159.193 18.2314 159.257 23.5305V23.9721C159.193 29.3342 155.103 33.6239 150.182 33.6239Z" fill="#303336"/>
<path d="M104.552 38.8598V8.26399H97.1388V11.8598L96.4358 11.2289C95.3494 10.2196 91.1954 6.93922 84.4212 8.13782C76.9439 9.46259 71.7035 15.8972 71.7035 23.8458C71.7035 31.7944 76.9439 38.2289 84.4212 39.5537C91.2593 40.7523 95.3494 37.4719 96.4358 36.4626L97.1388 35.8317V38.9229C97.1388 39.049 97.3944 42.5817 95.0298 45.2313C93.56 46.8715 91.3871 47.7546 88.5752 47.8177C84.9324 47.9439 82.44 46.9976 80.7784 46.0514V52.8014C83.0152 53.6845 85.4437 54.1261 88.1278 54.1261C102.891 54 104.552 43.4018 104.552 38.8598ZM97.0749 24.035C96.9471 29.3341 92.9209 33.6238 88 33.6238C82.9513 33.6238 78.9251 29.2079 78.9251 23.7827C78.9251 18.3574 83.0152 13.9416 88 13.9416C92.9209 13.9416 97.011 18.2313 97.0749 23.5303V24.035Z" fill="#303336"/>
<path d="M243.999 39.4274L229.172 23.4041L243.232 8.26387H234.093L221.504 21.827V0.378357H214.09V39.3643H221.504V24.9812L234.86 39.4274H243.999Z" fill="#303336"/>
<path d="M33.2321 39.3645L21.4091 23.8458L22.0482 23.7196C24.1572 23.278 26.0105 22.521 27.4165 21.4486C28.8863 20.3131 29.9728 18.9252 30.7397 17.285C31.4426 15.7079 31.8261 14.0047 31.8261 12.3014C31.7622 5.48832 26.2022 0 19.3641 0H0V39.3645H7.3494V6.3715H18.0859C21.3452 6.3715 24.0293 9.02103 24.0293 12.2383C24.0293 15.4556 21.3452 18.1051 18.0859 18.1051H8.75537L24.6045 39.4276H33.2321V39.3645Z" fill="#303336"/>
<path d="M142.642 22.8993H94.6468V28.8292H142.642V22.8993Z" fill="#4CAF50"/>
<path d="M123.085 39.3643H129.284V33.3714H125.386C123.533 33.3714 121.999 31.8573 121.999 30.0279V14.8246H129.923V7.7592H121.999V0.378357H114.585V30.9742C114.522 35.6424 118.356 39.3643 123.085 39.3643Z" fill="#303336"/>
</svg>
