<svg width="17" height="17" viewBox="0 0 17 17" fill="none" xmlns="http://www.w3.org/2000/svg">
<path d="M13.8325 6.63762L5.621 14.8505C5.18052 15.2907 4.62875 15.6029 4.02462 15.7539L0.8745 16.5417C0.75917 16.5708 0.638276 16.5694 0.523629 16.5378C0.408982 16.5062 0.304506 16.4453 0.220407 16.3612C0.136309 16.2771 0.0754652 16.1726 0.0438222 16.058C0.0121792 15.9433 0.0108191 15.8225 0.0398745 15.7071L0.827749 12.5584C0.978884 11.9536 1.29162 11.4013 1.7325 10.9606L9.94262 2.74775L13.8325 6.63762ZM15.7781 0.804874C16.2937 1.32057 16.5833 2.01992 16.5833 2.74912C16.5833 3.47833 16.2937 4.17767 15.7781 4.69337L14.8046 5.66412L10.9147 1.77562L11.8883 0.804874C12.1436 0.549395 12.4468 0.346731 12.7806 0.208461C13.1143 0.0701912 13.472 -0.000976562 13.8332 -0.000976562C14.1944 -0.000976562 14.5521 0.0701912 14.8858 0.208461C15.2195 0.346731 15.5227 0.549395 15.7781 0.804874Z" fill="#606E7B"/>
</svg>
