<svg xmlns="http://www.w3.org/2000/svg" width="18" height="16" viewBox="0 0 18 16">
    <g id="turn-left-arrow-symbol" transform="translate(2.138 0.882)">
        <path id="Path_483" data-name="Path 483" d="M18,10.534a6.716,6.716,0,0,1-6.852,6.557H2.536a1.406,1.406,0,1,1,0-2.81h8.613a3.839,3.839,0,0,0,3.916-3.747,3.838,3.838,0,0,0-3.916-3.746H4.915l.7.673a1.362,1.362,0,0,1,0,1.986,1.517,1.517,0,0,1-2.077,0L.43,6.469a1.364,1.364,0,0,1,0-1.988L3.542,1.5a1.514,1.514,0,0,1,2.076,0,1.362,1.362,0,0,1,0,1.987l-.508.486h6.037A6.721,6.721,0,0,1,18,10.534Z" transform="translate(-2.138 -1.973)" fill="#0080FF"/>
    </g>
</svg>
