<svg width="160" height="160" viewBox="0 0 160 160" fill="none" xmlns="http://www.w3.org/2000/svg">
    <g clip-path="url(#clip0)">
        <circle cx="80.5556" cy="62.7778" r="62.7778" fill="url(#paint0_linear)" />
        <g clip-path="url(#clip1)">
            <path d="M75.2295 83.314L65.771 92.7725C61.8497 96.6938 55.4994 96.6938 51.5814 92.7733C47.6626 88.8545 47.6626 82.5036 51.5806 78.5856L70.501 59.6652C74.419 55.747 80.7699 55.747 84.6879 59.6652C85.994 60.9713 88.1118 60.9713 89.4179 59.6652C90.724 58.3591 90.724 56.2413 89.4179 54.9352C82.8875 48.4048 72.3014 48.4048 65.771 54.9352L46.8508 73.8556C40.3204 80.386 40.3204 90.9721 46.8508 97.5025C53.3804 104.036 63.9673 104.036 70.5011 97.5025L79.9597 88.0439C81.2658 86.7378 81.2658 84.6201 79.9597 83.314C78.6536 82.0079 76.5357 82.0079 75.2295 83.314Z" fill="#C2C2C2" />
            <path d="M117.323 50.6779C123.853 44.1475 123.853 33.5614 117.323 27.031C110.793 20.5008 100.207 20.5008 93.6734 27.0303L82.3244 38.3792C81.0183 39.6853 81.0183 41.8031 82.3244 43.1092C83.6305 44.4153 85.7483 44.4153 87.0544 43.1092L98.4026 31.761C102.323 27.8428 108.675 27.8428 112.593 31.761C116.511 35.679 116.511 42.0299 112.593 45.948L91.7829 66.758C87.8648 70.6762 81.514 70.6762 77.596 66.758C76.2899 65.4519 74.1721 65.4519 72.866 66.758C71.5599 68.0641 71.5599 70.1818 72.866 71.4879C79.3964 78.0184 89.9825 78.0184 96.5129 71.4879L117.323 50.6779Z" fill="#C2C2C2" />
            <path d="M104.521 79.9712C103.215 78.665 101.097 78.665 99.791 79.9712C98.4849 81.2773 98.4849 83.395 99.791 84.7011L109.821 94.7316C111.128 96.0377 113.245 96.0377 114.551 94.7316C115.858 93.4255 115.858 91.3077 114.551 90.0016L104.521 79.9712Z" fill="#464646" />
            <path d="M59.6586 44.5688C60.9647 45.8749 63.0825 45.8749 64.3886 44.5688C65.6947 43.2627 65.6947 41.1449 64.3886 39.8388L54.3481 29.7983C53.042 28.4922 50.9242 28.4922 49.6181 29.7983C48.312 31.1044 48.312 33.2222 49.6181 34.5283L59.6586 44.5688Z" fill="#464646" />
            <path d="M118.877 72.3007H108.843C106.996 72.3007 105.499 73.7981 105.499 75.6452C105.499 77.4924 106.996 78.9897 108.843 78.9897H118.877C120.724 78.9897 122.222 77.4924 122.222 75.6452C122.222 73.7981 120.724 72.3007 118.877 72.3007Z" fill="#969696" />
            <path d="M68.7084 38.8549C70.5556 38.8549 72.0529 37.3575 72.0529 35.5103V25.4766C72.0529 23.6293 70.5556 22.1319 68.7084 22.1319C66.8613 22.1319 65.3639 23.6293 65.3639 25.4764V35.5102C65.3637 37.3573 66.8613 38.8549 68.7084 38.8549Z" fill="#969696" />
            <path d="M45.2962 52.2332H55.33C57.1771 52.2332 58.6745 50.7358 58.6745 48.8886C58.6745 47.0415 57.1771 45.5441 55.33 45.5441H45.2962C43.4491 45.5441 41.9517 47.0415 41.9517 48.8886C41.9517 50.7358 43.4491 52.2332 45.2962 52.2332Z" fill="#969696" />
            <path d="M95.465 85.679C93.6179 85.679 92.1205 87.1763 92.1205 89.0235V99.0573C92.1205 100.904 93.6179 102.402 95.465 102.402C97.3122 102.402 98.8095 100.904 98.8095 99.0573V89.0235C98.8097 87.1765 97.3122 85.679 95.465 85.679Z" fill="#969696" />
        </g>
        <ellipse opacity="0.2" cx="79.4444" cy="146.667" rx="42.7778" ry="4.44444" fill="#AEAEAE" />
    </g>
    <defs>
        <linearGradient id="paint0_linear" x1="67.2778" y1="28.5" x2="111.778" y2="128.5" gradientUnits="userSpaceOnUse">
            <stop stop-color="#F4F4F4" />
            <stop offset="1" stop-color="#F4F4F4" stop-opacity="0.25" />
        </linearGradient>
        <clipPath id="clip0">
            <rect width="160" height="160" fill="white" />
        </clipPath>
        <clipPath id="clip1">
            <rect width="80.271" height="80.271" fill="white" transform="translate(41.9512 22.1319)" />
        </clipPath>
    </defs>
</svg>
