<svg width="20" height="21" viewBox="0 0 20 21" fill="none" xmlns="http://www.w3.org/2000/svg">
<path fill-rule="evenodd" clip-rule="evenodd" d="M4.16602 4.84831C3.70578 4.84831 3.33268 5.2214 3.33268 5.68164V17.3483C3.33268 17.8085 3.70578 18.1816 4.16602 18.1816H15.8327C16.2929 18.1816 16.666 17.8085 16.666 17.3483V5.68164C16.666 5.2214 16.2929 4.84831 15.8327 4.84831H4.16602ZM1.66602 5.68164C1.66602 4.30093 2.7853 3.18164 4.16602 3.18164H15.8327C17.2134 3.18164 18.3327 4.30093 18.3327 5.68164V17.3483C18.3327 18.729 17.2134 19.8483 15.8327 19.8483H4.16602C2.7853 19.8483 1.66602 18.729 1.66602 17.3483V5.68164Z" fill="#ABB4BD"/>
<path fill-rule="evenodd" clip-rule="evenodd" d="M13.3333 1.51562C13.7936 1.51562 14.1667 1.88872 14.1667 2.34896V5.68229C14.1667 6.14253 13.7936 6.51562 13.3333 6.51562C12.8731 6.51562 12.5 6.14253 12.5 5.68229V2.34896C12.5 1.88872 12.8731 1.51562 13.3333 1.51562Z" fill="#ABB4BD"/>
<path fill-rule="evenodd" clip-rule="evenodd" d="M6.66732 1.51562C7.12756 1.51562 7.50065 1.88872 7.50065 2.34896V5.68229C7.50065 6.14253 7.12756 6.51562 6.66732 6.51562C6.20708 6.51562 5.83398 6.14253 5.83398 5.68229V2.34896C5.83398 1.88872 6.20708 1.51562 6.66732 1.51562Z" fill="#ABB4BD"/>
<path fill-rule="evenodd" clip-rule="evenodd" d="M1.66602 9.01497C1.66602 8.55474 2.03911 8.18164 2.49935 8.18164H17.4993C17.9596 8.18164 18.3327 8.55474 18.3327 9.01497C18.3327 9.47521 17.9596 9.84831 17.4993 9.84831H2.49935C2.03911 9.84831 1.66602 9.47521 1.66602 9.01497Z" fill="#ABB4BD"/>
</svg>
