<svg width="11" height="13" viewBox="0 0 11 13" fill="none" xmlns="http://www.w3.org/2000/svg">
<g clip-path="url(#clip0_22_1016)">
<path opacity="0.301" d="M7.39979 0H1.05779C0.769195 0.0109537 0.496482 0.134966 0.298534 0.345263C0.100586 0.55556 -0.00671754 0.835269 -0.000208547 1.124V8.993H1.05779V1.124H7.39979V0ZM8.98579 2.248H3.17279C2.88419 2.25895 2.61148 2.38297 2.41353 2.59326C2.21559 2.80356 2.10828 3.08327 2.11479 3.372V11.24C2.10828 11.5287 2.21559 11.8084 2.41353 12.0187C2.61148 12.229 2.88419 12.353 3.17279 12.364H8.98879C9.27739 12.353 9.5501 12.229 9.74805 12.0187C9.946 11.8084 10.0533 11.5287 10.0468 11.24V3.372C10.0533 3.08327 9.946 2.80356 9.74805 2.59326C9.5501 2.38297 9.27739 2.25895 8.98879 2.248H8.98579ZM8.98579 11.241H3.17279V3.372H8.98879L8.98579 11.241Z" fill="black"/>
</g>
<defs>
<clipPath id="clip0_22_1016">
<rect width="10.046" height="12.365" fill="white"/>
</clipPath>
</defs>
</svg>
