<svg width="10" height="10" viewBox="0 0 10 10" fill="none" xmlns="http://www.w3.org/2000/svg">
<path d="M9.38896 0.618026C9.32451 0.553502 9.24797 0.502314 9.16372 0.46739C9.07947 0.432466 8.98916 0.41449 8.89796 0.41449C8.80676 0.41449 8.71645 0.432466 8.6322 0.46739C8.54795 0.502314 8.47142 0.553502 8.40696 0.618026L4.99996 4.01803L1.59396 0.611026C1.46198 0.489755 1.28824 0.424165 1.10904 0.427954C0.929843 0.431743 0.759037 0.504618 0.632295 0.631359C0.505554 0.7581 0.432679 0.928907 0.42889 1.10811C0.425101 1.28731 0.490691 1.46104 0.611962 1.59303L4.01796 5.00003L0.610962 8.40603C0.489691 8.53801 0.424101 8.71175 0.42789 8.89094C0.431679 9.07014 0.504554 9.24095 0.631295 9.36769C0.758037 9.49443 0.928843 9.56731 1.10804 9.5711C1.28724 9.57489 1.46098 9.5093 1.59296 9.38803L4.99996 5.98203L8.40596 9.38803C8.53795 9.5093 8.71168 9.57489 8.89088 9.5711C9.07008 9.56731 9.24089 9.49443 9.36763 9.36769C9.49437 9.24095 9.56725 9.07014 9.57103 8.89094C9.57482 8.71175 9.50923 8.53801 9.38796 8.40603L5.98196 5.00003L9.38796 1.59403C9.51516 1.46349 9.58642 1.28849 9.58661 1.10623C9.5868 0.923969 9.51589 0.748824 9.38896 0.618026Z" fill="#7A7A7A"/>
</svg>
