<svg width="18" height="22" viewBox="0 0 18 22" fill="none" xmlns="http://www.w3.org/2000/svg">
<path d="M17.0297 5.76641C17.1703 5.90703 17.25 6.09687 17.25 6.29609V20.75C17.25 21.1648 16.9148 21.5 16.5 21.5H1.5C1.08516 21.5 0.75 21.1648 0.75 20.75V1.25C0.75 0.835156 1.08516 0.5 1.5 0.5H11.4539C11.6531 0.5 11.8453 0.579688 11.9859 0.720313L17.0297 5.76641ZM15.5203 6.64062L11.1094 2.22969V6.64062H15.5203ZM10.4845 10.1994L9.04969 12.597L7.60078 10.1984C7.57573 10.157 7.54041 10.1228 7.49824 10.099C7.45608 10.0752 7.40849 10.0627 7.36008 10.0627H6.45914C6.40605 10.0627 6.35405 10.0778 6.30914 10.1061C6.27787 10.1258 6.25079 10.1515 6.22945 10.1816C6.2081 10.2118 6.19292 10.2459 6.18475 10.2819C6.17659 10.318 6.17561 10.3553 6.18188 10.3917C6.18814 10.4281 6.20152 10.463 6.22125 10.4942L8.15109 13.5509L6.19523 16.663C6.16704 16.7078 6.15209 16.7597 6.15211 16.8127C6.15211 16.8873 6.18174 16.9589 6.23449 17.0116C6.28723 17.0644 6.35877 17.094 6.43336 17.094H7.24102C7.28898 17.094 7.33615 17.0817 7.37804 17.0583C7.41992 17.0349 7.45513 17.0012 7.48031 16.9604L8.94984 14.5822L10.41 16.9599C10.4352 17.0009 10.4704 17.0347 10.5124 17.0582C10.5544 17.0817 10.6017 17.094 10.6498 17.094H11.5282C11.582 17.094 11.6348 17.0785 11.6801 17.0495C11.7112 17.0295 11.738 17.0036 11.7591 16.9733C11.7802 16.943 11.7951 16.9088 11.803 16.8727C11.8109 16.8366 11.8116 16.7994 11.805 16.763C11.7985 16.7267 11.7849 16.6919 11.7649 16.6609L9.80016 13.6011L11.7994 10.4963C11.8285 10.4509 11.844 10.398 11.8439 10.344C11.8439 10.2694 11.8143 10.1979 11.7615 10.1451C11.7088 10.0924 11.6372 10.0627 11.5627 10.0627H10.7259C10.6773 10.0628 10.6296 10.0754 10.5873 10.0994C10.545 10.1234 10.5097 10.1579 10.4848 10.1996L10.4845 10.1994Z" fill="#3BA873"/>
</svg>
