<svg width="16" height="5" viewBox="0 0 16 5" fill="none" xmlns="http://www.w3.org/2000/svg">
<path d="M1.92816 4.15624C1.44282 4.15624 1.02682 3.99157 0.680156 3.66224C0.333489 3.31557 0.160156 2.88224 0.160156 2.36224C0.160156 1.85957 0.333489 1.44357 0.680156 1.11424C1.02682 0.767572 1.44282 0.594238 1.92816 0.594238C2.41349 0.594238 2.82082 0.758904 3.15016 1.08824C3.47949 1.41757 3.64416 1.84224 3.64416 2.36224C3.64416 2.88224 3.47082 3.31557 3.12416 3.66224C2.79482 3.99157 2.39616 4.15624 1.92816 4.15624Z" fill="#95A1AC"/>
<path d="M8.01878 4.15624C7.53345 4.15624 7.11745 3.99157 6.77078 3.66224C6.42411 3.31557 6.25078 2.88224 6.25078 2.36224C6.25078 1.85957 6.42411 1.44357 6.77078 1.11424C7.11745 0.767572 7.53345 0.594238 8.01878 0.594238C8.50411 0.594238 8.91145 0.758904 9.24078 1.08824C9.57012 1.41757 9.73478 1.84224 9.73478 2.36224C9.73478 2.88224 9.56145 3.31557 9.21478 3.66224C8.88545 3.99157 8.48678 4.15624 8.01878 4.15624Z" fill="#95A1AC"/>
<path d="M14.1094 4.15624C13.6241 4.15624 13.2081 3.99157 12.8614 3.66224C12.5147 3.31557 12.3414 2.88224 12.3414 2.36224C12.3414 1.85957 12.5147 1.44357 12.8614 1.11424C13.2081 0.767572 13.6241 0.594238 14.1094 0.594238C14.5947 0.594238 15.0021 0.758904 15.3314 1.08824C15.6607 1.41757 15.8254 1.84224 15.8254 2.36224C15.8254 2.88224 15.6521 3.31557 15.3054 3.66224C14.9761 3.99157 14.5774 4.15624 14.1094 4.15624Z" fill="#95A1AC"/>
</svg>
