<svg width="10" height="10" viewBox="0 0 10 10" fill="none" xmlns="http://www.w3.org/2000/svg">
    <path fill-rule="evenodd" clip-rule="evenodd" d="M0.528514 0.528636C0.788864 0.268287 1.21097 0.268287 1.47132 0.528636L4.99992 4.05723L8.52851 0.528636C8.78886 0.268287 9.21097 0.268287 9.47132 0.528636C9.73167 0.788986 9.73167 1.2111 9.47132 1.47145L5.94273 5.00004L9.47132 8.52864C9.73167 8.78899 9.73167 9.2111 9.47132 9.47145C9.21097 9.7318 8.78886 9.7318 8.52851 9.47145L4.99992 5.94285L1.47132 9.47145C1.21097 9.7318 0.788864 9.7318 0.528514 9.47145C0.268165 9.2111 0.268165 8.78899 0.528514 8.52864L4.05711 5.00004L0.528514 1.47145C0.268165 1.2111 0.268165 0.788986 0.528514 0.528636Z" fill="#BDBDBD" />
</svg>
