<svg xmlns="http://www.w3.org/2000/svg" width="24.119" height="22.119" viewBox="0 0 24.119 22.119">
    <g id="view" transform="translate(0.023 -89.276)">
        <g id="Group_53107" data-name="Group 53107" transform="translate(0 92.835)">
            <g id="Group_53106" data-name="Group 53106" transform="translate(0 0)">
                <path id="Path_362" data-name="Path 362" d="M23.385,99.877c-.21-.288-5.22-7.042-11.618-7.042S.359,99.59.149,99.877a.777.777,0,0,0,0,.916c.21.288,5.22,7.042,11.618,7.042s11.408-6.755,11.618-7.042A.776.776,0,0,0,23.385,99.877Zm-11.618,6.406c-4.713,0-8.795-4.483-10-5.949,1.207-1.467,5.28-5.948,10-5.948s8.794,4.482,10,5.949C20.563,101.8,16.49,106.283,11.767,106.283Z" transform="translate(0 -92.835)" fill="#aab5c3"/>
            </g>
        </g>
        <g id="Group_53109" data-name="Group 53109" transform="translate(7.112 95.68)">
            <g id="Group_53108" data-name="Group 53108" transform="translate(0 0)">
                <path id="Path_363" data-name="Path 363" d="M159.377,154.725a4.655,4.655,0,1,0,4.655,4.655A4.661,4.661,0,0,0,159.377,154.725Zm0,7.759a3.1,3.1,0,1,1,3.1-3.1A3.107,3.107,0,0,1,159.377,162.484Z" transform="translate(-154.722 -154.725)" fill="#aab5c3"/>
            </g>
        </g>
        <line id="Line_106" data-name="Line 106" y1="20" x2="22" transform="translate(1.036 90.335)" fill="none" stroke="#aab5c3" stroke-linecap="round" stroke-width="1.5"/>
    </g>
</svg>
