<svg width="80" height="80" viewBox="0 0 80 80" fill="none" xmlns="http://www.w3.org/2000/svg">
    <path d="M55 25.0001H51.6667V16.6667C51.6667 13.5726 50.4375 10.6051 48.2496 8.41717C46.0617 6.22924 43.0942 5.00008 40 5.00008C36.9058 5.00008 33.9383 6.22924 31.7504 8.41717C29.5625 10.6051 28.3333 13.5726 28.3333 16.6667V25.0001H25V16.6667C25 12.6885 26.5804 8.87319 29.3934 6.06015C32.2064 3.2471 36.0218 1.66675 40 1.66675C43.9782 1.66675 47.7936 3.2471 50.6066 6.06015C53.4196 8.87319 55 12.6885 55 16.6667V25.0001Z" fill="#D0D0D0" />
    <path d="M7.5 76.3333C9.70914 76.3333 11.5 74.5424 11.5 72.3333C11.5 70.1241 9.70914 68.3333 7.5 68.3333C5.29086 68.3333 3.5 70.1241 3.5 72.3333C3.5 74.5424 5.29086 76.3333 7.5 76.3333Z" fill="#0080FF" />
    <path d="M20.5 76.3333C22.7091 76.3333 24.5 74.5424 24.5 72.3333C24.5 70.1241 22.7091 68.3333 20.5 68.3333C18.2909 68.3333 16.5 70.1241 16.5 72.3333C16.5 74.5424 18.2909 76.3333 20.5 76.3333Z" fill="#0080FF" />
    <path d="M33.5 76.3333C35.7091 76.3333 37.5 74.5424 37.5 72.3333C37.5 70.1241 35.7091 68.3333 33.5 68.3333C31.2909 68.3333 29.5 70.1241 29.5 72.3333C29.5 74.5424 31.2909 76.3333 33.5 76.3333Z" fill="#0080FF" />
    <path d="M46.5 76.3333C48.7091 76.3333 50.5 74.5424 50.5 72.3333C50.5 70.1241 48.7091 68.3333 46.5 68.3333C44.2909 68.3333 42.5 70.1241 42.5 72.3333C42.5 74.5424 44.2909 76.3333 46.5 76.3333Z" fill="#0080FF" />
    <path d="M59.5 76.3333C61.7091 76.3333 63.5 74.5424 63.5 72.3333C63.5 70.1241 61.7091 68.3333 59.5 68.3333C57.2909 68.3333 55.5 70.1241 55.5 72.3333C55.5 74.5424 57.2909 76.3333 59.5 76.3333Z" fill="#0080FF" />
    <path d="M72.5 76.3333C74.7091 76.3333 76.5 74.5424 76.5 72.3333C76.5 70.1241 74.7091 68.3333 72.5 68.3333C70.2909 68.3333 68.5 70.1241 68.5 72.3333C68.5 74.5424 70.2909 76.3333 72.5 76.3333Z" fill="#0080FF" />
    <path d="M60 28.3333H20C18.6739 28.3333 17.4021 28.86 16.4645 29.7977C15.5268 30.7354 15 32.0072 15 33.3333V56.6666C15 57.9927 15.5268 59.2644 16.4645 60.2021C17.4021 61.1398 18.6739 61.6666 20 61.6666H60C61.3261 61.6666 62.5978 61.1398 63.5355 60.2021C64.4732 59.2644 65 57.9927 65 56.6666V33.3333C65 32.0072 64.4732 30.7354 63.5355 29.7977C62.5978 28.86 61.3261 28.3333 60 28.3333ZM41.6667 48.0982V53.3333C41.6667 53.7753 41.4911 54.1992 41.1785 54.5118C40.866 54.8243 40.442 54.9999 40 54.9999C39.558 54.9999 39.134 54.8243 38.8215 54.5118C38.5089 54.1992 38.3333 53.7753 38.3333 53.3333V48.0982C36.7622 47.6926 35.393 46.7279 34.4823 45.3849C33.5716 44.0419 33.182 42.4129 33.3865 40.8033C33.5909 39.1936 34.3754 37.7137 35.5929 36.641C36.8105 35.5684 38.3774 34.9766 40 34.9766C41.6226 34.9766 43.1895 35.5684 44.4071 36.641C45.6246 37.7137 46.4091 39.1936 46.6135 40.8033C46.818 42.4129 46.4284 44.0419 45.5177 45.3849C44.607 46.7279 43.2378 47.6926 41.6667 48.0982Z" fill="#D0D0D0" />
</svg>