<svg width="20" height="20" viewBox="0 0 22 22" fill="none" xmlns="http://www.w3.org/2000/svg">
<path d="M18.9099 14.6657C18.8386 14.5797 18.7685 14.4938 18.6998 14.4109C17.7545 13.2675 17.1826 12.5774 17.1826 9.34055C17.1826 7.66477 16.7817 6.28977 15.9915 5.25852C15.4088 4.49668 14.6212 3.91875 13.5831 3.49164C13.5697 3.48421 13.5578 3.47446 13.5478 3.46285C13.1744 2.21246 12.1527 1.375 11.0002 1.375C9.84781 1.375 8.82644 2.21246 8.45304 3.46156C8.44308 3.47275 8.43131 3.48219 8.41824 3.48949C5.99566 4.4868 4.81832 6.4002 4.81832 9.33926C4.81832 12.5774 4.24726 13.2675 3.30109 14.4096C3.23234 14.4925 3.1623 14.5767 3.09097 14.6644C2.90672 14.8866 2.78998 15.1569 2.75458 15.4434C2.71917 15.7299 2.76657 16.0205 2.89117 16.2809C3.15628 16.8395 3.72132 17.1862 4.36628 17.1862H17.6389C18.2809 17.1862 18.842 16.8399 19.108 16.2839C19.2331 16.0234 19.281 15.7326 19.2459 15.4458C19.2108 15.159 19.0942 14.8882 18.9099 14.6657Z" fill="#B5B5B5"/>
<path d="M11.0003 20.625C11.6212 20.6245 12.2304 20.456 12.7633 20.1372C13.2962 19.8185 13.7329 19.3615 14.027 18.8147C14.0409 18.7885 14.0478 18.7592 14.0469 18.7295C14.0461 18.6999 14.0376 18.671 14.0223 18.6456C14.007 18.6202 13.9854 18.5992 13.9596 18.5847C13.9337 18.5701 13.9046 18.5625 13.8749 18.5625H8.12658C8.0969 18.5624 8.0677 18.57 8.04182 18.5845C8.01594 18.599 7.99427 18.62 7.97891 18.6454C7.96355 18.6708 7.95502 18.6998 7.95417 18.7294C7.95332 18.7591 7.96017 18.7885 7.97404 18.8147C8.26818 19.3615 8.70479 19.8184 9.23758 20.1371C9.77038 20.4558 10.3795 20.6244 11.0003 20.625Z" fill="#B5B5B5"/>
<g filter="url(#filter0_d_10865_236134)">
<circle cx="16" cy="4" r="3" fill="#F44336"/>
</g>
<defs>
<filter id="filter0_d_10865_236134" x="11.6667" y="1" width="8.66667" height="8.66667" filterUnits="userSpaceOnUse" color-interpolation-filters="sRGB">
<feFlood flood-opacity="0" result="BackgroundImageFix"/>
<feColorMatrix in="SourceAlpha" type="matrix" values="0 0 0 0 0 0 0 0 0 0 0 0 0 0 0 0 0 0 127 0" result="hardAlpha"/>
<feOffset dy="1.33333"/>
<feGaussianBlur stdDeviation="0.666667"/>
<feComposite in2="hardAlpha" operator="out"/>
<feColorMatrix type="matrix" values="0 0 0 0 0 0 0 0 0 0 0 0 0 0 0 0 0 0 0.5 0"/>
<feBlend mode="normal" in2="BackgroundImageFix" result="effect1_dropShadow_10865_236134"/>
<feBlend mode="normal" in="SourceGraphic" in2="effect1_dropShadow_10865_236134" result="shape"/>
</filter>
</defs>
</svg>
