<svg width="18" height="17" viewBox="0 0 18 17" fill="none" xmlns="http://www.w3.org/2000/svg">
<path d="M16.9099 13.6657C16.8386 13.5797 16.7685 13.4938 16.6998 13.4109C15.7545 12.2675 15.1826 11.5774 15.1826 8.34055C15.1826 6.66477 14.7817 5.28977 13.9915 4.25852C13.4088 3.49668 12.6212 2.91875 11.5831 2.49164C11.5697 2.48421 11.5578 2.47446 11.5478 2.46285C11.1744 1.21246 10.1527 0.375 9.00023 0.375C7.84781 0.375 6.82644 1.21246 6.45304 2.46156C6.44308 2.47275 6.43131 2.48219 6.41824 2.48949C3.99566 3.4868 2.81832 5.4002 2.81832 8.33926C2.81832 11.5774 2.24726 12.2675 1.30109 13.4096C1.23234 13.4925 1.1623 13.5767 1.09097 13.6644C0.906722 13.8866 0.789985 14.1569 0.754575 14.4434C0.719166 14.7299 0.766566 15.0205 0.891167 15.2809C1.15628 15.8395 1.72132 16.1862 2.36628 16.1862H15.6389C16.2809 16.1862 16.842 15.8399 17.108 15.2839C17.2331 15.0234 17.281 14.7326 17.2459 14.4458C17.2108 14.159 17.0942 13.8882 16.9099 13.6657V13.6657Z" fill="#B5B5B5"/>
</svg>
