<svg width="400" height="300" viewBox="0 0 400 300" fill="none" xmlns="http://www.w3.org/2000/svg">
<path d="M400 0H0V300H400V0Z" fill="#00993E"/>
<path d="M400 42.857H0V85.714H400V42.857Z" fill="white"/>
<path d="M400 128.571H0V171.428H400V128.571Z" fill="white"/>
<path d="M400 214.286H0V257.143H400V214.286Z" fill="white"/>
<path d="M152 0H0V128.571H152V0Z" fill="#C8312A"/>
<path d="M64.2347 71.821C64.2347 71.821 62.9247 72.644 63.822 88.33C64.5547 101.241 67.6213 105.447 67.6213 105.447L68.9607 113.439L81.6647 113.517C81.6647 113.517 81.8947 108.568 82.3867 107.003C83.5953 103.158 88.386 98.763 90.4393 92.127C92.6473 88.082 91.5413 79.827 95.9733 71.859C98.174 67.902 93.3953 69.577 93.3953 69.577C90.7747 72.184 89.494 75.244 88.8333 77.382C88.3887 81.501 86.3333 84.945 86.1393 81.954C86.1393 81.954 85.3927 76.782 83.152 66.728C82.93 63.748 81.9693 53.442 81.764 45.576C81.618 40.458 78.6313 40.15 78.382 45.345L78.0213 65.94L77.3073 42.154C77.004 35.422 73.6087 36.42 73.4613 41.999L73.3153 66.766L72.6967 42.758C71.7767 38.172 69.3593 40.89 69.3147 45.858L68.9027 69.218C68.9027 69.218 68.382 56.425 68.2647 51.023C68.154 47.774 65.6173 48.014 65.378 52.659C65.0327 59.377 64.4893 64.86 64.2347 71.821Z" fill="white"/>
<path d="M72.1373 27.97L76 10.138L79.8627 27.97L69.75 16.95H82.2493L72.1373 27.97Z" fill="white"/>
<path d="M102.175 35.084L92.0627 24.063H104.562L94.4494 35.084L98.312 17.252L102.175 35.084Z" fill="white"/>
<path d="M121.264 56.272L111.151 45.251H123.651L113.538 56.272L117.401 38.44L121.264 56.272Z" fill="white"/>
<path d="M132.323 86.198L122.21 75.177H134.709L124.597 86.198L128.46 68.366L132.323 86.198Z" fill="white"/>
<path d="M49.8254 35.084L59.938 24.063H47.438L57.5507 35.084L53.688 17.252L49.8254 35.084Z" fill="white"/>
<path d="M30.736 56.272L40.8487 45.251H28.3493L38.462 56.272L34.5987 38.44L30.736 56.272Z" fill="white"/>
<path d="M19.6773 86.198L29.79 75.177H17.29L27.4027 86.198L23.54 68.366L19.6773 86.198Z" fill="white"/>
</svg>
